<?xml version="1.0" encoding="UTF-8" standalone="no"?>
<svg width="60px" height="92px" viewBox="0 0 60 92" version="1.1" xmlns="http://www.w3.org/2000/svg" xmlns:xlink="http://www.w3.org/1999/xlink">
    <!-- Generator: Sketch 40 (33762) - http://www.bohemiancoding.com/sketch -->
    <title>Group 6</title>
    <desc>Created with Sketch.</desc>
    <defs></defs>
    <g id="Page-1" stroke="none" stroke-width="1" fill="none" fill-rule="evenodd">
        <g id="iPhone-7" transform="translate(0.000000, -1698.000000)">
            <g id="Group-6" transform="translate(-19.000000, 1698.000000)">
                <g id="Group-3-Copy-2" transform="translate(47.000000, 0.000000)" fill="#3F99D7">
                    <ellipse id="Oval-2-Copy-2" cx="16" cy="15.8350515" rx="16" ry="15.8350515"></ellipse>
                </g>
                <g id="noun_159727_cc" transform="translate(0.000000, 6.000000)" fill="#FFFFFF">
                    <g id="Group">
                        <path d="M16.5327539,26.2857058 C14.7213436,27.3291093 10.8177736,29.8776248 8.53524274,33.5962497 C6.29309365,37.248642 2.75007505,57.4563063 1.03673471,67.8644244 C3.30580497,69.1593199 7.44878113,70.833373 12.8830121,70.2209614 L15.5414779,44.5601458 C15.5962817,44.0322048 16.0625949,43.6424883 16.5971724,43.7039214 C17.1250197,43.7586353 17.5086464,44.2299427 17.4548041,44.7569239 L15.1915026,66.5925664 C14.3357939,75.2613587 13.5021991,83.5106779 13.5021991,83.5106779 C13.5021991,83.5106779 18.4855004,85.1588139 28.5655566,85.2605625 L28.5655566,37.4761366 L17.2875082,30.0177692 L16.5327539,26.2857058 L16.5327539,26.2857058 Z" id="Shape"></path>
                        <path d="M58.3490266,69.8965176 C56.1616814,71.0522286 52.8128798,72.3000893 48.5314519,72.3000893 C47.8401546,72.3000893 47.113283,72.2482551 46.3739122,72.1743433 L46.8056124,76.3498772 C54.3223884,77.4902299 59.0114798,74.0710916 59.0114798,74.0710916 C59.0114798,74.0710916 58.7653433,72.4623112 58.3490266,69.8965176 L58.3490266,69.8965176 Z" id="Shape"></path>
                        <path d="M40.0397449,28.8572587 C40.0397449,28.8572587 41.5136791,22.6601905 41.7203952,20.5532257 C43.8154394,-0.993489099 29.527027,0.00959892849 29.527027,0.00959892849 C29.527027,0.00959892849 15.2386147,-0.993489099 17.3346203,20.5532257 C17.5394135,22.6611504 19.0143091,28.8572587 19.0143091,28.8572587 L28.9088015,35.3998884 L18.9508521,15.5185877 C18.9508521,15.5185877 21.5141323,9.11898207 29.527027,7.999747 C37.5399217,9.11994196 40.103202,15.5185877 40.103202,15.5185877 L30.146214,35.3998884 L40.0397449,28.8572587 L40.0397449,28.8572587 Z" id="Shape"></path>
                        <path d="M42.4578431,43.7039214 C42.9914592,43.6434482 43.4587338,44.0322048 43.5135376,44.5601458 L46.171042,70.2209614 C51.6052729,70.833373 55.7482491,69.1593199 58.0182808,67.8644244 C56.303979,57.4563063 52.7619219,37.248642 50.5197728,33.5962497 C48.2362805,29.8776248 44.331749,27.3291093 42.5222616,26.2857058 L41.7675073,30.0177692 L30.4884975,37.4761366 L30.4884975,85.2605625 C40.5685537,85.1588139 45.5508935,83.5106779 45.5508935,83.5106779 C45.5508935,83.5106779 44.7192216,75.2613587 43.8625514,66.5925664 L41.59925,44.7569239 C41.5454076,44.2299427 41.9280729,43.7576754 42.4578431,43.7039214 L42.4578431,43.7039214 Z M33.2921453,66.0492671 C32.4960478,66.0492671 31.8499396,65.405179 31.8499396,64.6094278 C31.8499396,63.8136766 32.4960478,63.1686286 33.2921453,63.1686286 C34.0892043,63.1686286 34.734351,63.8136766 34.734351,64.6094278 C34.734351,65.405179 34.0892043,66.0492671 33.2921453,66.0492671 L33.2921453,66.0492671 Z M33.2921453,53.6829675 C32.4960478,53.6829675 31.8499396,53.0379195 31.8499396,52.2431282 C31.8499396,51.447377 32.4960478,50.802329 33.2921453,50.802329 C34.0892043,50.802329 34.734351,51.447377 34.734351,52.2431282 C34.734351,53.0379195 34.0892043,53.6829675 33.2921453,53.6829675 L33.2921453,53.6829675 Z M33.2921453,41.3166679 C32.4960478,41.3166679 31.8499396,40.6725798 31.8499396,39.8768286 C31.8499396,39.0810775 32.4960478,38.4369894 33.2921453,38.4369894 C34.0892043,38.4369894 34.734351,39.0820374 34.734351,39.8768286 C34.734351,40.6725798 34.0892043,41.3166679 33.2921453,41.3166679 L33.2921453,41.3166679 Z" id="Shape"></path>
                    </g>
                </g>
            </g>
        </g>
    </g>
</svg>