<?xml version="1.0" encoding="UTF-8" standalone="no"?>
<svg width="374px" height="274px" viewBox="0 0 374 274" version="1.1" xmlns="http://www.w3.org/2000/svg" xmlns:xlink="http://www.w3.org/1999/xlink">
    <!-- Generator: Sketch 40 (33762) - http://www.bohemiancoding.com/sketch -->
    <title>Group 4</title>
    <desc>Created with Sketch.</desc>
    <defs></defs>
    <g id="Page-1" stroke="none" stroke-width="1" fill="none" fill-rule="evenodd">
        <g id="Desktop-HD-Copy-5" transform="translate(-500.000000, -2026.000000)">
            <g id="Group-4" transform="translate(500.000000, 2026.000000)">
                <circle id="Oval" fill="#3F99D7" cx="303.5" cy="84.5" r="22.5"></circle>
                <circle id="Oval" fill="#3F99D7" cx="162.5" cy="80.5" r="22.5"></circle>
                <circle id="Oval-Copy" fill="#3F99D7" cx="207.5" cy="177.5" r="22.5"></circle>
                <g id="Group-3" transform="translate(125.000000, 18.000000)" fill="#FFFFFF">
                    <g id="noun_159727_cc" transform="translate(120.945946, 0.000000)">
                        <g id="Group">
                            <path d="M0.704065939,69.8965176 C0.288710706,72.4623112 0.0416128004,74.0710916 0.0416128004,74.0710916 C0.0416128004,74.0710916 4.7297427,77.4902299 12.2474801,76.3498772 L12.6801418,72.1743433 C11.9398096,72.2482551 11.2129379,72.3000893 10.5226022,72.3000893 C6.24213572,72.3000893 2.89333415,71.0522286 0.704065939,69.8965176 L0.704065939,69.8965176 Z" id="Shape"></path>
                            <path d="M16.5327539,26.2857058 C14.7213436,27.3291093 10.8177736,29.8776248 8.53524274,33.5962497 C6.29309365,37.248642 2.75007505,57.4563063 1.03673471,67.8644244 C3.30580497,69.1593199 7.44878113,70.833373 12.8830121,70.2209614 L15.5414779,44.5601458 C15.5962817,44.0322048 16.0625949,43.6424883 16.5971724,43.7039214 C17.1250197,43.7586353 17.5086464,44.2299427 17.4548041,44.7569239 L15.1915026,66.5925664 C14.3357939,75.2613587 13.5021991,83.5106779 13.5021991,83.5106779 C13.5021991,83.5106779 18.4855004,85.1588139 28.5655566,85.2605625 L28.5655566,37.4761366 L17.2875082,30.0177692 L16.5327539,26.2857058 L16.5327539,26.2857058 Z" id="Shape"></path>
                            <path d="M58.3490266,69.8965176 C56.1616814,71.0522286 52.8128798,72.3000893 48.5314519,72.3000893 C47.8401546,72.3000893 47.113283,72.2482551 46.3739122,72.1743433 L46.8056124,76.3498772 C54.3223884,77.4902299 59.0114798,74.0710916 59.0114798,74.0710916 C59.0114798,74.0710916 58.7653433,72.4623112 58.3490266,69.8965176 L58.3490266,69.8965176 Z" id="Shape"></path>
                            <path d="M40.0397449,28.8572587 C40.0397449,28.8572587 41.5136791,22.6601905 41.7203952,20.5532257 C43.8154394,-0.993489099 29.527027,0.00959892849 29.527027,0.00959892849 C29.527027,0.00959892849 15.2386147,-0.993489099 17.3346203,20.5532257 C17.5394135,22.6611504 19.0143091,28.8572587 19.0143091,28.8572587 L28.9088015,35.3998884 L18.9508521,15.5185877 C18.9508521,15.5185877 21.5141323,9.11898207 29.527027,7.999747 C37.5399217,9.11994196 40.103202,15.5185877 40.103202,15.5185877 L30.146214,35.3998884 L40.0397449,28.8572587 L40.0397449,28.8572587 Z" id="Shape"></path>
                            <path d="M42.4578431,43.7039214 C42.9914592,43.6434482 43.4587338,44.0322048 43.5135376,44.5601458 L46.171042,70.2209614 C51.6052729,70.833373 55.7482491,69.1593199 58.0182808,67.8644244 C56.303979,57.4563063 52.7619219,37.248642 50.5197728,33.5962497 C48.2362805,29.8776248 44.331749,27.3291093 42.5222616,26.2857058 L41.7675073,30.0177692 L30.4884975,37.4761366 L30.4884975,85.2605625 C40.5685537,85.1588139 45.5508935,83.5106779 45.5508935,83.5106779 C45.5508935,83.5106779 44.7192216,75.2613587 43.8625514,66.5925664 L41.59925,44.7569239 C41.5454076,44.2299427 41.9280729,43.7576754 42.4578431,43.7039214 L42.4578431,43.7039214 Z M33.2921453,66.0492671 C32.4960478,66.0492671 31.8499396,65.405179 31.8499396,64.6094278 C31.8499396,63.8136766 32.4960478,63.1686286 33.2921453,63.1686286 C34.0892043,63.1686286 34.734351,63.8136766 34.734351,64.6094278 C34.734351,65.405179 34.0892043,66.0492671 33.2921453,66.0492671 L33.2921453,66.0492671 Z M33.2921453,53.6829675 C32.4960478,53.6829675 31.8499396,53.0379195 31.8499396,52.2431282 C31.8499396,51.447377 32.4960478,50.802329 33.2921453,50.802329 C34.0892043,50.802329 34.734351,51.447377 34.734351,52.2431282 C34.734351,53.0379195 34.0892043,53.6829675 33.2921453,53.6829675 L33.2921453,53.6829675 Z M33.2921453,41.3166679 C32.4960478,41.3166679 31.8499396,40.6725798 31.8499396,39.8768286 C31.8499396,39.0810775 32.4960478,38.4369894 33.2921453,38.4369894 C34.0892043,38.4369894 34.734351,39.0820374 34.734351,39.8768286 C34.734351,40.6725798 34.0892043,41.3166679 33.2921453,41.3166679 L33.2921453,41.3166679 Z" id="Shape"></path>
                        </g>
                    </g>
                    <g id="noun_653837_cc" transform="translate(0.000000, 88.947020)">
                        <g id="Group">
                            <path d="M137.296794,51.8496707 L142.930316,46.2132885 L155.362916,59.429633 L142.930316,51.6553127 L138.850869,53.4045348 L137.296794,51.8496707 L137.296794,51.8496707 Z M41.915441,36.1066721 L49.8800754,38.4389682 L41.3326629,46.4076465 L41.915441,36.1066721 L41.915441,36.1066721 Z M61.1471192,32.9969439 L61.1471192,30.8590059 L70.860088,32.9969439 L55.7078567,53.5988928 L59.3987848,38.2446102 L57.4561911,39.6051162 L61.1471192,32.9969439 L61.1471192,32.9969439 Z M117.676598,43.6866344 L121.561785,43.6866344 L107.769369,24.2508336 L101.35881,7.53604488 L139.822166,59.429633 L120.00771,50.6835227 L118.647894,59.429633 L109.129185,53.7932508 L96.3080662,58.846559 L109.323444,46.9907205 L114.956966,49.5173746 L117.676598,43.6866344 L117.676598,43.6866344 Z M73.3854599,31.2477219 L59.2045255,28.1379937 L51.4341504,36.4953881 L41.5269223,33.968734 L12.3880159,63.7055092 L5.97745653,64.2885832 L0.149675257,69.9249655 L174.594595,69.9249655 L169.73811,64.0942252 L163.71607,64.0942252 L142.930316,42.9092024 L135.354201,50.1004487 L100.581772,2.48273667 L73.3854599,31.2477219 L73.3854599,31.2477219 Z M93.3941756,6.95297086 C92.4228787,3.0658107 88.9262099,0.150440574 84.846763,0.150440574 C79.9902787,0.150440574 76.1050911,4.03760074 76.1050911,8.89655094 C76.1050911,13.1724271 79.2132411,16.8652293 83.4869474,17.4483033 L93.3941756,6.95297086 L93.3941756,6.95297086 Z" id="Shape"></path>
                        </g>
                    </g>
                </g>
                <polyline id="Path-2" stroke="#3F99D7" stroke-width="2" points="316.95031 78.7586449 335.689271 27.0428434 373.234234 27.0428434"></polyline>
                <g id="noun_12806_cc" transform="translate(154.000000, 0.000000)" fill="#FFFFFF">
                    <g id="Group">
                        <g transform="translate(15.675000, 19.090000)" id="Shape">
                            <path d="M5.129025,62.3994 C5.129025,62.3994 6.9003,55.82829 8.346525,53.24782 C9.79275,50.66735 10.352925,49.72945 10.258875,47.66358 C10.16565,45.59937 10.036125,44.91711 7.9728,46.00856 C7.9728,46.00856 6.689925,46.63106 5.71065,46.63106 C4.7322,46.63106 4.170375,46.84271 3.729825,45.19931 C3.285975,43.55674 1.536975,38.23146 1.536975,38.23146 C1.536975,38.23146 0.9306,35.08659 0.9306,33.3494 C0.9306,31.61304 0.368775,29.45338 2.7027,27.57758 C5.0358,25.69929 8.498325,22.99017 9.1641,22.28716 C9.828225,21.58332 10.4676,21.19488 10.270425,19.43445 C10.074075,17.67568 9.79275,16.05635 8.84895,15.24627 C7.904325,14.43536 6.5043,14.22537 5.805525,12.99365 C5.10675,11.76193 4.112625,10.07703 4.7553,8.27676 C5.06715,7.40443 5.1876,6.99192 5.2932,5.56598 C5.38395,4.32679 6.51585,3.26688 7.3095,2.68007 C8.8836,1.5189 11.052525,0.87482 12.488025,0.67396 C13.920225,0.4731 15.555375,0.9213 16.136175,1.15619 C16.7211,1.39108 18.65655,2.89255 19.59045,4.67539 C20.5227,6.45823 20.70915,6.85746 20.406375,7.42103 C20.10195,7.98377 20.079675,8.28921 20.335425,8.96981 C20.592825,9.65041 19.705125,10.37749 19.68285,10.77589 C19.658925,11.17595 19.4931,15.0147 19.168875,16.08042 C18.79515,17.30633 18.259725,18.23842 20.540025,18.75385 C22.336875,19.16221 24.4398,19.78637 27.054225,19.62203 C29.666175,19.45852 30.36495,19.46931 30.36495,19.46931 C30.36495,19.46931 32.255025,19.29418 32.779725,21.22974 C33.304425,23.16447 33.86295,26.93101 33.79365,27.2489 C33.72435,27.56679 33.829125,28.62089 33.54945,29.11391 C33.26895,29.6061 32.779725,30.16884 32.779725,30.16884 C32.779725,30.16884 33.023925,40.41104 33.37455,42.80559 C33.723525,45.19848 32.81355,47.30917 32.81355,49.35263 C32.81355,51.39194 34.2837,55.64071 34.353825,62.39857 L5.129025,62.39857 L5.129025,62.3994 Z"></path>
                            <path d="M34.716,62.76045 L4.658775,62.76045 L4.7817,62.30395 C4.8543,62.0342 6.58185,55.6598 8.033025,53.06854 L8.146875,52.86685 C9.485025,50.47977 9.986625,49.58669 9.899175,47.68018 C9.834825,46.24594 9.7317,45.85418 9.419025,45.85418 C9.161625,45.85418 8.74335,46.01022 8.140275,46.32811 C8.074275,46.36048 6.76005,46.99211 5.711475,46.99211 L5.16285,47.00124 C4.305675,47.00124 3.7686,46.72983 3.38415,45.29227 C2.947725,43.67958 1.213575,38.39746 1.19625,38.34517 C1.15995,38.17004 0.571725,35.10153 0.571725,33.3494 C0.571725,33.08131 0.5577,32.8016 0.543675,32.51525 C0.466125,30.94406 0.3696,28.99024 2.4783,27.29538 C3.03105,26.84967 3.648975,26.35665 4.2768,25.85616 C6.21555,24.30987 8.412525,22.55608 8.904225,22.03733 L9.136875,21.79663 C9.678075,21.25215 10.067475,20.85873 9.9132,19.47429 C9.74325,17.95456 9.4875,16.26966 8.615475,15.521 C8.29125,15.24295 7.897725,15.03711 7.483575,14.81882 C6.74355,14.43204 5.9796,14.03281 5.49285,13.1721 L5.4483,13.09325 C4.72395,11.81837 3.73065,10.07205 4.416225,8.15475 C4.706625,7.34052 4.828725,6.95374 4.934325,5.53942 C5.039925,4.11099 6.33435,2.95231 7.095,2.38874 C8.727675,1.18441 10.925475,0.52788 12.436875,0.31623 C13.964775,0.09794 15.68655,0.58598 16.269,0.82004 C16.914975,1.07983 18.93375,2.64687 19.9056,4.50607 C20.84445,6.29887 21.1266,6.8392 20.7207,7.59284 C20.474025,8.04685 20.4435,8.24107 20.668725,8.84033 C20.89725,9.44374 20.52765,10.00814 20.25705,10.41982 C20.175375,10.54515 20.049975,10.73439 20.038425,10.80079 L20.026875,11.01576 C19.883325,13.82116 19.71585,15.5127 19.510425,16.18583 L19.408125,16.50704 C19.23735,17.03907 19.1004,17.45822 19.26045,17.74042 C19.4139,18.01017 19.868475,18.23178 20.615925,18.40027 L21.3708,18.57706 C22.975425,18.95886 24.830025,19.39627 27.02865,19.26098 C29.2974,19.11822 30.128175,19.10743 30.329475,19.10743 C30.327825,19.10577 30.377325,19.10328 30.48375,19.10328 C30.974625,19.10328 32.613075,19.25019 33.12375,21.13346 C33.58905,22.8582 34.246575,26.8505 34.140975,27.32609 C34.122,27.4149 34.122,27.57177 34.117875,27.75769 C34.1055,28.25901 34.091475,28.88151 33.858,29.29319 C33.63525,29.68246 33.301125,30.1041 33.139425,30.29832 C33.170775,31.52589 33.4059,40.55795 33.726,42.7533 C33.942975,44.23153 33.702075,45.57613 33.47025,46.87674 C33.31515,47.73911 33.170775,48.55417 33.170775,49.35263 C33.170775,50.05564 33.360525,51.0782 33.6039,52.37383 C34.051875,54.76838 34.66485,58.04605 34.710225,62.39442 L34.716,62.76045 L34.716,62.76045 Z M5.602575,62.03669 L33.98835,62.03669 C33.914925,57.93234 33.33,54.80822 32.901,52.50829 C32.6502,51.17531 32.45385,50.1237 32.45385,49.35346 C32.45385,48.49026 32.60565,47.64449 32.7657,46.74975 C32.987625,45.50475 33.216975,44.21991 33.018975,42.85871 C32.66835,40.4708 32.43075,30.59878 32.420025,30.1788 L32.41755,30.03936 L32.5083,29.93312 C32.512425,29.92731 32.9769,29.38947 33.2376,28.93546 C33.380325,28.68314 33.3927,28.11791 33.40095,27.74192 C33.406725,27.49707 33.414975,27.28874 33.4422,27.17088 C33.472725,26.81979 32.944725,23.21925 32.4324,21.32602 C32.0661,19.97395 30.948225,19.82787 30.486225,19.82787 L30.395475,19.83119 C30.19335,19.83285 29.38155,19.83949 27.077325,19.98474 C24.765675,20.13248 22.859925,19.67598 21.208275,19.28339 L20.462475,19.10826 C19.482375,18.88665 18.90405,18.56627 18.64005,18.10064 C18.322425,17.54122 18.520425,16.93117 18.7275,16.28543 L18.8265,15.97501 C18.95355,15.55835 19.140825,14.35236 19.31325,10.97924 L19.3248,10.75514 C19.33965,10.51278 19.487325,10.28536 19.65975,10.02308 C19.86435,9.71017 20.097825,9.35659 20.0013,9.09929 C19.7109,8.33071 19.7307,7.91571 20.091225,7.24922 C20.289225,6.87821 20.2059,6.6317 19.272825,4.84554 C18.3414,3.06851 16.449675,1.67328 16.004175,1.49483 C15.3879,1.24583 13.850925,0.85075 12.537525,1.03501 C11.17875,1.22591 9.05025,1.84758 7.52235,2.97472 C6.861525,3.46442 5.736225,4.45544 5.652075,5.59586 C5.54565,7.03674 5.4219,7.48577 5.094375,8.40126 C4.521825,10.00648 5.3823,11.5204 6.07365,12.73635 L6.1182,12.81603 C6.501,13.49165 7.140375,13.82531 7.816875,14.18055 C8.249175,14.40714 8.69715,14.64037 9.08325,14.9732 C10.154925,15.89284 10.433775,17.6624 10.62765,19.39627 C10.8207,21.12516 10.252275,21.70035 9.64755,22.30874 L9.425625,22.53699 C8.899275,23.09143 6.777375,24.78629 4.723125,26.42471 C4.097775,26.92437 3.480675,27.41656 2.927925,27.86144 C1.106325,29.32556 1.1847,30.92829 1.2606,32.47956 C1.276275,32.77836 1.2903,33.06969 1.2903,33.35023 C1.2903,35.03181 1.8843,38.13103 1.88925,38.16257 C1.9503,38.33604 3.635775,43.47125 4.07715,45.10469 C4.391475,46.27416 4.6959,46.27831 5.157075,46.27831 L5.16285,46.27831 L5.711475,46.26918 C6.59505,46.26918 7.805325,45.68901 7.8177,45.68237 C10.54515,44.239 10.53855,45.89236 10.6194,47.64698 C10.714275,49.76099 10.1475,50.77442 8.7747,53.22209 L8.66085,53.42544 C7.470375,55.54692 6.031575,60.50866 5.602575,62.03669 L5.602575,62.03669 Z"></path>
                        </g>
                        <path d="M66,82.93526 L0.806025,82.93526 L0.806025,0.06474 L66,0.06474 L66,82.93526 L66,82.93526 Z M3.68115,80.04271 L63.124875,80.04271 L63.124875,2.95729 L3.68115,2.95729 L3.68115,80.04271 L3.68115,80.04271 Z" id="Shape"></path>
                    </g>
                </g>
                <polyline id="Path-4" stroke="#3F99D7" stroke-width="2" points="146.496131 75.6499766 84.4630777 22.4847358 0.06040901 22.4847358"></polyline>
                <polyline id="Path-3" stroke="#3F99D7" stroke-width="2" points="211.909806 183.876174 227.639101 272.96032 263.663077 272.96032"></polyline>
            </g>
        </g>
    </g>
</svg>