<?xml version="1.0" encoding="UTF-8" standalone="no"?>
<svg width="70px" height="89px" viewBox="0 0 70 89" version="1.1" xmlns="http://www.w3.org/2000/svg" xmlns:xlink="http://www.w3.org/1999/xlink">
    <!-- Generator: Sketch 40 (33762) - http://www.bohemiancoding.com/sketch -->
    <title>Group 5</title>
    <desc>Created with Sketch.</desc>
    <defs></defs>
    <g id="Page-1" stroke="none" stroke-width="1" fill="none" fill-rule="evenodd">
        <g id="iPhone-7" transform="translate(0.000000, -1827.000000)">
            <g id="Group-5" transform="translate(-54.000000, 1827.000000)">
                <g id="Group-3-Copy" transform="translate(82.000000, 0.000000)" fill="#3F99D7">
                    <ellipse id="Oval-2-Copy-2" cx="16" cy="15.8350515" rx="16" ry="15.8350515"></ellipse>
                </g>
                <g id="noun_653837_cc" transform="translate(0.000000, 39.000000)" fill="#FFFFFF">
                    <g id="Group">
                        <path d="M97.2845858,37.0354791 L101.276338,33.0094918 L110.085724,42.4497379 L101.276338,36.8966519 L98.3857589,38.1460963 L97.2845858,37.0354791 L97.2845858,37.0354791 Z M29.7000839,25.7904801 L35.3435963,27.4564058 L29.287144,33.1483189 L29.7000839,25.7904801 L29.7000839,25.7904801 Z M43.3271016,23.5692457 L43.3271016,22.042147 L50.2094338,23.5692457 L39.4729956,38.2849234 L42.0882818,27.3175787 L40.7118154,28.2893687 L43.3271016,23.5692457 L43.3271016,23.5692457 Z M83.3822748,31.2047388 L86.1352077,31.2047388 L76.362296,17.322024 L71.8199568,5.3828892 L99.0739922,42.4497379 L85.0340345,36.2025162 L84.070508,42.4497379 L77.3258225,38.4237506 L68.2411441,42.0332564 L77.4634692,33.5648004 L81.4552218,35.3695533 L83.3822748,31.2047388 L83.3822748,31.2047388 Z M51.9988401,22.3198013 L41.9506352,20.098567 L36.4447694,26.0681343 L29.4247906,24.2633814 L8.77779414,45.5039352 L4.23545491,45.9204166 L0.10605561,49.9464039 L123.712741,49.9464039 L120.271575,45.7815895 L116.004529,45.7815895 L101.276338,30.6494303 L95.9081194,35.7860348 L71.2693702,1.77338334 L51.9988401,22.3198013 L51.9988401,22.3198013 Z M66.1764444,4.96640776 C65.4882112,2.18986478 63.0105716,0.107457553 60.1199921,0.107457553 C56.678826,0.107457553 53.9258931,2.88400053 53.9258931,6.35467924 C53.9258931,9.40887651 56.1282394,12.0465923 59.1564656,12.4630738 L66.1764444,4.96640776 L66.1764444,4.96640776 Z" id="Shape"></path>
                    </g>
                </g>
            </g>
        </g>
    </g>
</svg>