<?xml version="1.0" encoding="UTF-8" standalone="no"?>
<svg width="141px" height="63px" viewBox="0 0 141 63" version="1.1" xmlns="http://www.w3.org/2000/svg" xmlns:xlink="http://www.w3.org/1999/xlink">
    <!-- Generator: Sketch 40 (33762) - http://www.bohemiancoding.com/sketch -->
    <title>Group 7</title>
    <desc>Created with Sketch.</desc>
    <defs></defs>
    <g id="Page-1" stroke="none" stroke-width="1" fill="none" fill-rule="evenodd">
        <g id="Desktop-HD-Copy-5" transform="translate(-166.000000, -21.000000)" fill="#FFFFFF">
            <g id="Group-7" transform="translate(166.000000, 21.000000)">
                <g id="logo-sansfond" opacity="0.6">
                    <g id="Calque_1">
                        <path d="M31.4226482,51.2604658 C29.8525418,51.2604658 27.0621188,53.0035479 27.0621188,53.0035479 C27.0621188,53.0035479 24.2712435,56.9259452 13.1945522,55.4441096 C2.1177376,53.9624384 9.44617559,36.7927808 9.96732376,35.9199863 C11.2187291,33.8247534 11.5373068,34.2639452 11.6244458,31.479411 C11.7117493,28.6950822 10.2740992,28.009274 9.53134073,27.0295068 C6.55677023,23.1069863 2.72820431,9.94590411 12.0606345,7.50534247 C23.4193453,4.53493151 31.5099517,13.2579452 31.5099517,13.2579452 L31.4226482,13.2579452 C31.4226482,13.2579452 39.5135424,4.53493151 50.8720888,7.50534247 C60.2043956,9.94590411 56.3761175,23.1069863 53.4013825,27.0295068 C52.6584595,28.009274 51.221015,28.6950822 51.3082774,31.479411 C51.3954164,34.2639452 51.6282121,34.1757945 52.9653995,35.9199863 C54.8883388,38.4277397 60.8151501,53.9624384 49.7383355,55.4441096 C38.6615209,56.9259863 35.8704811,53.0035479 35.8704811,53.0035479 C35.8704811,53.0035479 33.080346,51.2604658 31.5099928,51.2604658" id="Shape"></path>
                        <path d="M31.5535829,38.6502329 C32.5202134,38.6500685 33.2837389,38.9990137 35.086312,40.2191507 C44.2441351,46.8433562 51.6577794,42.8339178 51.6577794,42.8339178 C51.6577794,42.8339178 62.9960111,38.7373151 62.9960111,31.3333973 C62.9960111,23.9294795 52.0066645,19.7363014 48.7796005,18.6030822 C45.5525366,17.469863 45.116389,16.6855068 45.116389,16.6855068 C45.116389,16.6855068 46.599233,20.7821096 43.0231195,10.7585753 C39.4472115,0.735041096 31.5099928,0.0377260274 31.5099928,0.0377260274 C31.5099928,0.0377260274 23.5728975,0.735041096 19.9968251,10.7585753 C16.420876,20.7820685 17.90372,16.6855068 17.90372,16.6855068 C17.90372,16.6855068 17.4675725,17.4699041 14.2404674,18.6030822 C11.01328,19.7362603 0.0238922976,23.9294795 0.0238922976,31.3333973 C0.0238922976,38.7373151 11.3622885,42.8339178 11.3622885,42.8339178 C11.3622885,42.8339178 18.7757272,46.8433562 27.9335914,40.2191507 C29.736329,38.9990548 30.5000189,38.6500685 31.4663205,38.6502329" id="Shape"></path>
                        <path d="M31.4226482,62.9683151 C31.4226482,62.9683151 44.50547,60.2663425 44.50547,44.3157534 C44.50547,24.0941507 31.4226482,13.1119726 31.4226482,13.1119726 L31.5972141,13.1119726 C31.5972141,13.1119726 18.5142689,24.0941918 18.5142689,44.3157534 C18.5142689,60.2663425 31.5972141,62.9683151 31.5972141,62.9683151" id="Shape"></path>
                    </g>
                </g>
                <text id="Tone" font-family=".HelveticaNeueDeskInterface-Heavy, .Helvetica Neue DeskInterface" font-size="20" font-weight="600" letter-spacing="-0.482352853">
                    <tspan x="94" y="38">Tone</tspan>
                </text>
            </g>
        </g>
    </g>
</svg>